<?xml version="1.0" encoding="UTF-8"?>
<svg version="1.1" viewBox="0 0 60 60" xml:space="preserve" xmlns="http://www.w3.org/2000/svg">
<g transform="matrix(.075988 0 0 .075988 11.413 11.413)">
		
	<g transform="translate(-460.6,13.16)" fill="#feffff"><rect x="810.48" y="205.12" width="52.64" height="52.64" rx="13.16" ry="13.16"/><rect x="810.48" y="270.92" width="52.64" height="52.64" rx="13.16" ry="13.16"/><rect x="744.68" y="205.12" width="52.64" height="52.64" rx="13.16" ry="13.16"/><rect x="744.68" y="270.92" width="52.64" height="52.64" rx="13.16" ry="13.16"/><rect x="678.88" y="205.12" width="52.64" height="52.64" rx="13.16" ry="13.16"/><rect x="678.88" y="270.92" width="52.64" height="52.64" rx="13.16" ry="13.16"/><rect x="613.08" y="205.12" width="52.64" height="52.64" rx="13.16" ry="13.16"/><rect x="613.08" y="270.92" width="52.64" height="52.64" rx="13.16" ry="13.16"/><rect x="547.28" y="270.92" width="52.64" height="52.64" rx="13.16" ry="13.16"/><rect x="547.28" y="336.72" width="52.64" height="52.64" rx="13.16" ry="13.16"/><rect x="744.68" y="336.72" width="52.64" height="52.64" rx="13.16" ry="13.16"/><rect x="678.88" y="336.72" width="52.64" height="52.64" rx="13.16" ry="13.16"/><rect x="613.08" y="336.72" width="52.64" height="52.64" rx="13.16" ry="13.16"/></g><g transform="translate(-460.6,26.32)" fill="#fff"><rect x="573.6" y="7.7249" width="65.8" height="78.96" rx="13.16" ry="13.16"/><rect x="771" y="7.7249" width="65.8" height="78.96" rx="13.16" ry="13.16"/></g><path d="m47.205 205.12-3e-6 171.08c0 52.64 13.16 65.8 65.8 65.8h263.2c52.64 0 65.8-13.16 65.8-65.8l2e-5 -171.08v-26.32h-394.8z" fill="none" stroke="#fff" stroke-linejoin="round" stroke-miterlimit="4.8" stroke-width="26.32"/><rect x="47.205" y="86.685" width="394.8" height="92.12" rx="32.9" ry="32.9" fill="#fff" stroke="#fff" stroke-linecap="round" stroke-linejoin="round" stroke-miterlimit="4.8" stroke-width="26.32"/><rect x="34.045" y="139.32" width="421.12" height="52.64" rx="0" ry="0" fill="#fff"/></g>
</svg>
