<?xml version="1.0" encoding="UTF-8"?>
<svg xmlns="http://www.w3.org/2000/svg" xmlns:xlink="http://www.w3.org/1999/xlink" width="42pt" height="42pt" viewBox="0 0 42 42" version="1.1">
<g id="surface2">
<path style=" stroke:none;fill-rule:nonzero;fill:rgb(98.823529%,100%,100%);fill-opacity:1;" d="M 21 9.667969 C 14.722656 9.667969 9.667969 14.722656 9.667969 21 C 9.667969 27.277344 14.722656 32.332031 21 32.332031 C 27.277344 32.332031 32.332031 27.277344 32.332031 21 C 32.332031 14.722656 27.277344 9.667969 21 9.667969 Z M 17 17 C 17.738281 17 18.332031 17.59375 18.332031 18.332031 C 18.332031 19.070312 17.738281 19.667969 17 19.667969 C 16.261719 19.667969 15.667969 19.070312 15.667969 18.332031 C 15.667969 17.59375 16.261719 17 17 17 Z M 25 17 C 25.738281 17 26.332031 17.59375 26.332031 18.332031 C 26.332031 19.070312 25.738281 19.667969 25 19.667969 C 24.261719 19.667969 23.667969 19.070312 23.667969 18.332031 C 23.667969 17.59375 24.261719 17 25 17 Z M 16.1875 23.917969 C 18.582031 26.910156 23.417969 26.910156 25.8125 23.917969 L 26.855469 24.75 C 23.917969 28.421875 18.082031 28.421875 15.144531 24.75 Z M 16.1875 23.917969 "/>
</g>
</svg>
