<?xml version="1.0" encoding="UTF-8"?>
<svg xmlns="http://www.w3.org/2000/svg" xmlns:xlink="http://www.w3.org/1999/xlink" width="42pt" height="42pt" viewBox="0 0 42 42" version="1.1">
<g id="surface1">
<path style=" stroke:none;fill-rule:nonzero;fill:rgb(99.607843%,100%,100%);fill-opacity:1;" d="M 21 10.714844 C 15.949219 10.714844 11.855469 14.144531 11.855469 19.859375 C 11.855469 23.042969 11.855469 25.792969 15.285156 27.082031 L 15.285156 29.570312 C 15.285156 30.519531 16.054688 31.285156 17 31.285156 C 17.945312 31.285156 18.714844 30.519531 18.714844 29.570312 L 18.714844 27.769531 L 19.285156 27.808594 L 19.285156 29.570312 C 19.285156 30.519531 20.054688 31.285156 21 31.285156 C 21.949219 31.285156 22.714844 30.519531 22.714844 29.570312 L 22.714844 27.808594 L 23.289062 27.769531 L 23.289062 29.570312 C 23.289062 30.519531 24.054688 31.285156 25.003906 31.285156 C 25.949219 31.285156 26.71875 30.519531 26.71875 29.570312 L 26.71875 27.082031 C 30.144531 25.792969 30.144531 23.042969 30.144531 19.859375 C 30.144531 14.144531 26.050781 10.714844 21.003906 10.714844 Z M 17 15.859375 C 18.578125 15.859375 19.855469 17.136719 19.859375 18.714844 C 19.859375 20.292969 19.859375 21.570312 17 21.570312 C 14.140625 21.570312 14.140625 20.292969 14.140625 18.714844 C 14.144531 17.136719 15.421875 15.859375 17 15.859375 Z M 25 15.859375 C 26.578125 15.859375 27.859375 17.136719 27.859375 18.714844 C 27.859375 20.292969 27.859375 21.570312 25 21.570312 C 22.140625 21.570312 22.140625 20.292969 22.140625 18.714844 C 22.140625 17.136719 23.421875 15.859375 25 15.859375 Z M 21 23.285156 C 21.515625 23.285156 21.941406 23.542969 22.085938 23.894531 C 22.449219 23.996094 22.714844 24.324219 22.714844 24.714844 C 22.714844 25.191406 22.332031 25.570312 21.859375 25.570312 C 21.484375 25.570312 21.167969 25.332031 21.050781 24.996094 C 21.035156 25 21.015625 25 21 25 C 20.984375 25 20.964844 25 20.949219 24.996094 C 20.832031 25.332031 20.515625 25.570312 20.140625 25.570312 C 19.667969 25.570312 19.285156 25.191406 19.285156 24.714844 C 19.285156 24.324219 19.550781 23.996094 19.910156 23.894531 C 20.054688 23.542969 20.484375 23.285156 21 23.285156 Z M 21 23.285156 "/>
</g>
</svg>
