<?xml version="1.0" encoding="UTF-8"?>
<svg xmlns="http://www.w3.org/2000/svg" xmlns:xlink="http://www.w3.org/1999/xlink" width="42pt" height="42pt" viewBox="0 0 42 42" version="1.1">
<g id="surface1">
<path style=" stroke:none;fill-rule:nonzero;fill:rgb(100%,100%,99.607843%);fill-opacity:1;" d="M 19.363281 21.816406 L 19.363281 20.183594 C 19.363281 20.0625 19.324219 19.964844 19.25 19.886719 C 19.171875 19.8125 19.074219 19.773438 18.953125 19.773438 L 16.5 19.773438 L 16.5 17.316406 C 16.5 17.199219 16.460938 17.101562 16.386719 17.023438 C 16.308594 16.949219 16.210938 16.910156 16.089844 16.910156 L 14.453125 16.910156 C 14.335938 16.910156 14.238281 16.949219 14.160156 17.023438 C 14.085938 17.101562 14.046875 17.199219 14.046875 17.316406 L 14.046875 19.773438 L 11.589844 19.773438 C 11.472656 19.773438 11.375 19.8125 11.296875 19.886719 C 11.21875 19.964844 11.183594 20.0625 11.183594 20.183594 L 11.183594 21.816406 C 11.183594 21.9375 11.21875 22.035156 11.296875 22.113281 C 11.375 22.1875 11.472656 22.226562 11.589844 22.226562 L 14.046875 22.226562 L 14.046875 24.683594 C 14.046875 24.800781 14.085938 24.898438 14.160156 24.976562 C 14.238281 25.050781 14.335938 25.089844 14.453125 25.089844 L 16.089844 25.089844 C 16.210938 25.089844 16.308594 25.050781 16.386719 24.976562 C 16.460938 24.898438 16.5 24.800781 16.5 24.683594 L 16.5 22.226562 L 18.953125 22.226562 C 19.074219 22.226562 19.171875 22.1875 19.25 22.113281 C 19.324219 22.035156 19.363281 21.9375 19.363281 21.816406 Z M 26.726562 22.636719 C 26.726562 22.183594 26.566406 21.796875 26.25 21.480469 C 25.929688 21.160156 25.542969 21 25.089844 21 C 24.640625 21 24.253906 21.160156 23.933594 21.480469 C 23.613281 21.796875 23.453125 22.183594 23.453125 22.636719 C 23.453125 23.089844 23.613281 23.472656 23.933594 23.792969 C 24.253906 24.113281 24.640625 24.273438 25.089844 24.273438 C 25.542969 24.273438 25.929688 24.113281 26.246094 23.792969 C 26.566406 23.472656 26.726562 23.089844 26.726562 22.636719 Z M 30 19.363281 C 30 18.910156 29.839844 18.527344 29.519531 18.207031 C 29.203125 17.886719 28.816406 17.726562 28.363281 17.726562 C 27.910156 17.726562 27.527344 17.886719 27.207031 18.207031 C 26.886719 18.527344 26.726562 18.910156 26.726562 19.363281 C 26.726562 19.816406 26.886719 20.203125 27.207031 20.519531 C 27.527344 20.839844 27.910156 21 28.363281 21 C 28.816406 21 29.203125 20.839844 29.519531 20.519531 C 29.839844 20.203125 30 19.816406 30 19.363281 Z M 33.273438 21 C 33.273438 22.808594 32.632812 24.347656 31.355469 25.628906 C 30.078125 26.90625 28.535156 27.546875 26.726562 27.546875 C 25.089844 27.546875 23.648438 27 22.40625 25.910156 L 19.59375 25.910156 C 18.351562 27 16.910156 27.546875 15.273438 27.546875 C 13.464844 27.546875 11.921875 26.90625 10.644531 25.628906 C 9.367188 24.347656 8.726562 22.808594 8.726562 21 C 8.726562 19.191406 9.367188 17.652344 10.644531 16.371094 C 11.921875 15.09375 13.464844 14.453125 15.273438 14.453125 L 26.726562 14.453125 C 28.535156 14.453125 30.078125 15.09375 31.355469 16.371094 C 32.632812 17.652344 33.273438 19.191406 33.273438 21 Z M 33.273438 21 "/>
</g>
</svg>
