<?xml version="1.0" encoding="UTF-8"?>
<svg xmlns="http://www.w3.org/2000/svg" xmlns:xlink="http://www.w3.org/1999/xlink" width="42pt" height="42pt" viewBox="0 0 42 42" version="1.1">
<defs>
<clipPath id="clip1">
  <path d="M 7 11 L 35 11 L 35 31 L 7 31 Z M 7 11 "/>
</clipPath>
<clipPath id="clip2">
  <path d="M 12 11 L 30 11 C 32.761719 11 35 13.238281 35 16 L 35 26 C 35 28.761719 32.761719 31 30 31 L 12 31 C 9.238281 31 7 28.761719 7 26 L 7 16 C 7 13.238281 9.238281 11 12 11 Z M 12 11 "/>
</clipPath>
</defs>
<g id="surface2">
<g clip-path="url(#clip1)" clip-rule="nonzero">
<g clip-path="url(#clip2)" clip-rule="nonzero">
<path style=" stroke:none;fill-rule:nonzero;fill:rgb(98.823529%,100%,100%);fill-opacity:1;" d="M 11 11 C 9.9375 10.996094 8.917969 11.417969 8.167969 12.167969 C 7.417969 12.917969 6.996094 13.9375 7 15 L 7 27 C 6.996094 28.0625 7.417969 29.082031 8.167969 29.832031 C 8.917969 30.582031 9.9375 31.003906 11 31 L 31 31 C 32.0625 31.003906 33.082031 30.582031 33.832031 29.832031 C 34.582031 29.082031 35.003906 28.0625 35 27 L 35 15 C 35.003906 13.9375 34.582031 12.917969 33.832031 12.167969 C 33.082031 11.417969 32.0625 10.996094 31 11 Z M 15.78125 17.367188 C 16.210938 17.367188 16.613281 17.394531 16.980469 17.449219 C 17.328125 17.492188 17.667969 17.5625 18.003906 17.65625 C 18.289062 17.738281 18.566406 17.839844 18.839844 17.957031 L 19.011719 19.472656 C 18.601562 19.316406 18.160156 19.183594 17.683594 19.070312 C 17.203125 18.953125 16.660156 18.898438 16.039062 18.898438 C 15.140625 18.898438 14.480469 19.074219 14.054688 19.425781 C 13.625 19.777344 13.410156 20.289062 13.410156 20.957031 L 13.410156 21.050781 C 13.410156 21.6875 13.597656 22.1875 13.972656 22.558594 C 14.347656 22.929688 14.917969 23.109375 15.679688 23.109375 C 15.972656 23.113281 16.265625 23.078125 16.550781 23.003906 C 16.796875 22.929688 17.003906 22.832031 17.171875 22.714844 C 17.335938 22.597656 17.476562 22.464844 17.574219 22.324219 L 17.574219 21.765625 L 15.617188 21.785156 L 15.617188 20.441406 L 19.238281 20.441406 L 19.238281 24.410156 L 17.558594 24.410156 L 17.605469 23.148438 L 17.546875 23.148438 C 17.476562 23.4375 17.347656 23.695312 17.164062 23.921875 C 16.976562 24.144531 16.714844 24.3125 16.375 24.4375 C 16.03125 24.5625 15.589844 24.632812 15.039062 24.632812 C 14.3125 24.632812 13.679688 24.492188 13.144531 24.214844 C 12.605469 23.933594 12.195312 23.527344 11.90625 22.996094 C 11.613281 22.464844 11.46875 21.824219 11.46875 21.070312 L 11.46875 20.976562 C 11.46875 19.847656 11.832031 18.964844 12.558594 18.324219 C 13.285156 17.6875 14.355469 17.367188 15.78125 17.367188 Z M 20.78125 17.589844 L 22.65625 17.589844 L 22.65625 24.410156 L 20.78125 24.410156 Z M 24.253906 17.589844 L 30.53125 17.589844 L 30.53125 19.078125 L 26.089844 19.078125 L 26.089844 20.652344 L 30.421875 20.652344 L 30.421875 22.140625 L 26.089844 22.140625 L 26.089844 24.410156 L 24.253906 24.410156 Z M 24.253906 17.589844 "/>
</g>
</g>
</g>
</svg>
