<?xml version="1.0" encoding="UTF-8"?>
<svg xmlns="http://www.w3.org/2000/svg" xmlns:xlink="http://www.w3.org/1999/xlink" width="42pt" height="42pt" viewBox="0 0 42 42" version="1.1">
<g id="surface1">
<path style=" stroke:none;fill-rule:nonzero;fill:rgb(100%,100%,100%);fill-opacity:1;" d="M 23.234375 28.03125 L 23.234375 29.425781 C 23.234375 30.296875 22.53125 31 21.660156 31 L 20.605469 31 C 19.738281 31 19.03125 30.296875 19.03125 29.425781 L 19.03125 28.03125 Z M 21 11 L 20.984375 27.210938 L 18.59375 27.210938 C 18.421875 27.058594 18.316406 26.839844 18.316406 26.597656 L 18.316406 26.550781 C 18.316406 24.671875 17.664062 22.851562 16.472656 21.402344 C 15.511719 20.234375 14.925781 18.699219 14.925781 17.015625 C 14.925781 13.480469 17.78125 11.226562 21 11 Z M 21 11 L 20.984375 27.210938 L 23.40625 27.210938 C 23.578125 27.058594 23.683594 26.839844 23.683594 26.597656 L 23.683594 26.550781 C 23.683594 24.671875 24.335938 22.851562 25.527344 21.402344 C 26.488281 20.234375 27.074219 18.699219 27.074219 17.015625 C 27.074219 13.480469 24.21875 11.226562 21 11 Z M 21 11 "/>
</g>
</svg>
