<?xml version="1.0" encoding="UTF-8"?>
<svg xmlns="http://www.w3.org/2000/svg" xmlns:xlink="http://www.w3.org/1999/xlink" width="42pt" height="42pt" viewBox="0 0 42 42" version="1.1">
<g id="surface1">
<path style=" stroke:none;fill-rule:nonzero;fill:rgb(100%,100%,100%);fill-opacity:1;" d="M 12.332031 14.066406 C 9.933594 14.066406 8 16 8 18.398438 L 8 23.601562 C 8 26 9.933594 27.933594 12.332031 27.933594 L 25.332031 27.933594 C 27.734375 27.933594 29.667969 26 29.667969 23.601562 L 29.667969 18.398438 C 29.667969 16 27.734375 14.066406 25.332031 14.066406 Z M 18.832031 17.535156 C 19.152344 17.535156 19.410156 17.789062 19.410156 18.109375 L 19.410156 20.421875 L 21.722656 20.421875 C 22.042969 20.421875 22.300781 20.679688 22.300781 21 C 22.300781 21.320312 22.042969 21.578125 21.722656 21.578125 L 19.410156 21.578125 L 19.410156 23.890625 C 19.410156 24.210938 19.152344 24.464844 18.832031 24.464844 C 18.511719 24.464844 18.257812 24.210938 18.257812 23.890625 L 18.257812 21.578125 L 15.945312 21.578125 C 15.625 21.578125 15.367188 21.320312 15.367188 21 C 15.367188 20.679688 15.625 20.421875 15.945312 20.421875 L 18.257812 20.421875 L 18.257812 18.109375 C 18.257812 17.789062 18.511719 17.535156 18.832031 17.535156 Z M 18.832031 17.535156 "/>
<path style=" stroke:none;fill-rule:nonzero;fill:rgb(100%,100%,100%);fill-opacity:1;" d="M 30.535156 24.464844 L 30.535156 17.535156 L 34 14.066406 L 34 27.933594 Z M 30.535156 24.464844 "/>
</g>
</svg>
