<?xml version="1.0" encoding="UTF-8"?>
<svg xmlns="http://www.w3.org/2000/svg" xmlns:xlink="http://www.w3.org/1999/xlink" width="42pt" height="42pt" viewBox="0 0 42 42" version="1.1">
<g id="surface1">
<path style="fill-rule:nonzero;fill:rgb(100%,100%,99.607843%);fill-opacity:1;stroke-width:0.043059;stroke-linecap:butt;stroke-linejoin:miter;stroke:rgb(100%,100%,100%);stroke-opacity:1;stroke-miterlimit:4;" d="M 265.429884 219.266122 C 264.836025 218.716457 263.833369 219.100394 263.430098 219.801976 C 263.024064 220.500797 263.443908 221.180282 263.965952 221.801763 L 266.543025 224.870496 L 266.324816 225.243384 L 256.480564 219.558908 C 255.778981 219.155637 254.884049 219.39318 254.480777 220.094763 C 254.077505 220.796345 254.315049 221.691277 255.016632 222.094549 L 261.507651 225.840005 L 261.292204 226.215656 L 253.56651 221.754806 C 252.864928 221.351535 251.969996 221.589078 251.566724 222.290661 C 251.16069 222.989481 251.400996 223.887175 252.102578 224.290447 L 259.828272 228.751297 L 259.612826 229.121423 L 253.121806 225.375967 C 252.420224 224.972695 251.528054 225.213001 251.12202 225.911821 C 250.718748 226.613404 250.956292 227.508336 251.657874 227.911607 L 258.146132 231.659826 L 257.933447 232.032714 L 252.795874 229.06618 C 252.094292 228.662908 251.19936 228.900452 250.796088 229.602035 C 250.392816 230.303617 250.63036 231.198549 251.331942 231.601821 L 261.830821 237.664709 C 264.523903 239.219792 267.982098 238.291714 269.53718 235.598632 L 272.075583 231.198549 C 274.105753 225.224049 269.285826 222.823753 265.429884 219.266122 Z M 265.429884 219.266122 " transform="matrix(0.707107,0.707107,-0.707107,0.707107,-2.47474,-325.19667)"/>
</g>
</svg>
