<?xml version="1.0" encoding="UTF-8"?>
<svg xmlns="http://www.w3.org/2000/svg" xmlns:xlink="http://www.w3.org/1999/xlink" width="42pt" height="42pt" viewBox="0 0 42 42" version="1.1">
<g id="surface1">
<path style=" stroke:none;fill-rule:nonzero;fill:rgb(99.607843%,100%,100%);fill-opacity:1;" d="M 27 12 L 15 12 C 13.765625 12.007812 12.660156 12.773438 12.214844 13.925781 C 11.773438 15.082031 12.085938 16.386719 13 17.21875 L 13 27 C 13 28.65625 14.34375 30 16 30 L 26 30 C 27.65625 30 29 28.65625 29 27 L 29 17.21875 C 29.914062 16.386719 30.226562 15.082031 29.785156 13.925781 C 29.339844 12.773438 28.234375 12.007812 27 12 Z M 24 22.128906 C 24 22.609375 23.609375 23 23.128906 23 L 18.871094 23 C 18.390625 23 18 22.609375 18 22.128906 L 18 21.871094 C 18 21.390625 18.390625 21 18.871094 21 L 23.128906 21 C 23.609375 21 24 21.390625 24 21.871094 Z M 27 16 L 15 16 C 14.449219 16 14 15.550781 14 15 C 14 14.449219 14.449219 14 15 14 L 27 14 C 27.550781 14 28 14.449219 28 15 C 28 15.550781 27.550781 16 27 16 Z M 27 16 "/>
</g>
</svg>
