<?xml version="1.0" encoding="UTF-8"?>
<svg xmlns="http://www.w3.org/2000/svg" xmlns:xlink="http://www.w3.org/1999/xlink" width="42pt" height="42pt" viewBox="0 0 42 42" version="1.1">
<g id="surface1">
<path style=" stroke:none;fill-rule:nonzero;fill:rgb(100%,100%,100%);fill-opacity:1;" d="M 18.238281 29.863281 C 18.238281 31.40625 19.476562 32.644531 21 32.644531 C 22.527344 32.644531 23.761719 31.40625 23.761719 29.882812 Z M 29.816406 26.414062 L 27.332031 22.761719 L 27.332031 18.210938 C 27.332031 15.136719 25.144531 12.578125 22.242188 12 L 22.242188 10.597656 C 22.253906 10.144531 22.019531 9.722656 21.632812 9.492188 C 21.242188 9.261719 20.757812 9.261719 20.371094 9.492188 C 19.980469 9.722656 19.746094 10.144531 19.757812 10.597656 L 19.757812 12 C 16.855469 12.578125 14.671875 15.136719 14.671875 18.210938 L 14.671875 22.761719 L 12.183594 26.414062 C 11.921875 26.800781 11.894531 27.296875 12.113281 27.707031 C 12.328125 28.117188 12.757812 28.375 13.222656 28.375 L 28.777344 28.375 C 29.242188 28.375 29.671875 28.117188 29.890625 27.707031 C 30.105469 27.296875 30.078125 26.796875 29.816406 26.414062 Z M 29.816406 26.414062 "/>
</g>
</svg>
