<?xml version="1.0" encoding="UTF-8"?>
<svg xmlns="http://www.w3.org/2000/svg" xmlns:xlink="http://www.w3.org/1999/xlink" width="42pt" height="42pt" viewBox="0 0 42 42" version="1.1">
<g id="surface1">
<path style=" stroke:none;fill-rule:nonzero;fill:rgb(100%,100%,100%);fill-opacity:1;" d="M 21.679688 14.878906 C 22.378906 14.640625 22.898438 13.980469 22.980469 13.238281 C 23.03125 12.769531 22.929688 12.328125 22.699219 11.96875 L 21.421875 9.75 C 21.230469 9.421875 20.75 9.421875 20.550781 9.75 L 19.269531 11.96875 C 19.09375 12.285156 19 12.640625 19 13 C 19 14.320312 20.300781 15.351562 21.679688 14.878906 Z M 25.53125 24.921875 L 24.53125 23.921875 L 23.449219 24.988281 C 22.148438 26.289062 19.871094 26.300781 18.558594 24.988281 L 17.488281 23.921875 L 16.398438 24.988281 C 15.75 25.640625 14.878906 26 13.960938 26 C 13.230469 26 12.558594 25.769531 12 25.390625 L 12 29 C 12 30.101562 12.898438 31 14 31 L 28 31 C 29.101562 31 30 30.101562 30 29 L 30 25.390625 C 29.199219 25.9375 28.207031 26.128906 27.261719 25.910156 C 26.601562 25.769531 26.011719 25.398438 25.53125 24.921875 Z M 27 18 L 22 18 L 22 17 C 22 16.449219 21.550781 16 21 16 C 20.449219 16 20 16.449219 20 17 L 20 18 L 15 18 C 13.339844 18 12 19.339844 12 21 L 12 22.460938 C 12 23.308594 12.5 24.128906 13.308594 24.398438 C 14.039062 24.640625 14.828125 24.460938 15.339844 23.941406 L 17.480469 21.808594 L 19.609375 23.941406 C 20.378906 24.699219 21.613281 24.699219 22.378906 23.941406 L 24.519531 21.808594 L 26.648438 23.941406 C 27.078125 24.371094 27.679688 24.570312 28.300781 24.488281 C 29.289062 24.359375 29.988281 23.429688 29.988281 22.429688 L 29.988281 21.011719 C 30 19.339844 28.660156 18 27 18 Z M 27 18 "/>
</g>
</svg>
