<?xml version="1.0" encoding="UTF-8"?>
<svg xmlns="http://www.w3.org/2000/svg" xmlns:xlink="http://www.w3.org/1999/xlink" width="42pt" height="42pt" viewBox="0 0 42 42" version="1.1">
<g id="surface1">
<path style=" stroke:none;fill-rule:nonzero;fill:rgb(100%,100%,99.607843%);fill-opacity:1;" d="M 21 11 C 18.347656 10.996094 15.800781 12.046875 13.921875 13.921875 C 12.046875 15.800781 10.996094 18.347656 11 21 C 10.996094 23.652344 12.046875 26.199219 13.921875 28.078125 C 15.800781 29.953125 18.347656 31.003906 21 31 C 23.652344 31.003906 26.199219 29.953125 28.078125 28.078125 C 29.953125 26.199219 31.003906 23.652344 31 21 C 31.003906 18.347656 29.953125 15.800781 28.078125 13.921875 C 26.199219 12.046875 23.652344 10.996094 21 11 Z M 20.335938 14.335938 L 21.664062 14.335938 L 21.664062 20.335938 L 27.664062 20.335938 L 27.664062 21.664062 L 20.335938 21.664062 Z M 20.335938 14.335938 "/>
</g>
</svg>
