<?xml version="1.0" encoding="UTF-8"?>
<svg xmlns="http://www.w3.org/2000/svg" xmlns:xlink="http://www.w3.org/1999/xlink" width="42pt" height="42pt" viewBox="0 0 42 42" version="1.1">
<g id="surface1">
<path style=" stroke:none;fill-rule:nonzero;fill:rgb(100%,100%,100%);fill-opacity:1;" d="M 21 11 C 15.480469 11.011719 11.011719 15.480469 11 21 C 11.011719 26.519531 15.480469 30.988281 21 31 C 22.378906 31 23.5 29.878906 23.5 28.5 C 23.5 27.890625 23.269531 27.300781 22.859375 26.828125 C 22.777344 26.730469 22.730469 26.621094 22.730469 26.5 C 22.730469 26.21875 22.949219 26 23.230469 26 L 25 26 C 28.308594 26 31 23.308594 31 20 C 31 15.039062 26.511719 11 21 11 Z M 18.5 15 C 19.328125 15 20 15.671875 20 16.5 C 20 17.328125 19.328125 18 18.5 18 C 17.671875 18 17 17.328125 17 16.5 C 17 15.671875 17.671875 15 18.5 15 Z M 23.5 15 C 24.328125 15 25 15.671875 25 16.5 C 25 17.328125 24.328125 18 23.5 18 C 22.671875 18 22 17.328125 22 16.5 C 22 15.671875 22.671875 15 23.5 15 Z M 15.5 19 C 16.328125 19 17 19.671875 17 20.5 C 17 21.328125 16.328125 22 15.5 22 C 14.671875 22 14 21.328125 14 20.5 C 14 19.671875 14.671875 19 15.5 19 Z M 26.5 19 C 27.328125 19 28 19.671875 28 20.5 C 28 21.328125 27.328125 22 26.5 22 C 25.671875 22 25 21.328125 25 20.5 C 25 19.671875 25.671875 19 26.5 19 Z M 26.5 19 "/>
</g>
</svg>
