<?xml version="1.0" encoding="UTF-8"?>
<svg xmlns="http://www.w3.org/2000/svg" xmlns:xlink="http://www.w3.org/1999/xlink" width="42pt" height="42pt" viewBox="0 0 42 42" version="1.1">
<g id="surface1">
<path style="fill:none;stroke-width:2;stroke-linecap:butt;stroke-linejoin:round;stroke:rgb(100%,100%,100%);stroke-opacity:1;stroke-miterlimit:4;" d="M 21 17 C 23.215278 17 25 18.784722 25 21 C 25 23.215278 23.215278 25 21 25 C 18.784722 25 17 23.215278 17 21 C 17 18.784722 18.784722 17 21 17 Z M 21 17 " transform="matrix(2.25,0,0,2.25,-26.25,-26.25)"/>
<path style=" stroke:none;fill-rule:nonzero;fill:rgb(100%,100%,99.607843%);fill-opacity:1;" d="M 18.75 7.5 L 23.25 7.5 L 23.25 10.875 L 18.75 10.875 Z M 11.246094 11.402344 L 14.886719 8.753906 L 16.867188 11.484375 L 13.226562 14.132812 Z M 7.464844 18.96875 L 8.855469 14.6875 L 12.066406 15.730469 L 10.675781 20.011719 Z M 8.855469 27.3125 L 7.464844 23.03125 L 10.675781 21.988281 L 12.066406 26.269531 Z M 14.886719 33.246094 L 11.246094 30.597656 L 13.226562 27.867188 L 16.867188 30.515625 Z M 23.25 34.5 L 18.75 34.5 L 18.75 31.125 L 23.25 31.125 Z M 30.753906 30.597656 L 27.113281 33.246094 L 25.132812 30.515625 L 28.773438 27.867188 Z M 34.535156 23.03125 L 33.144531 27.3125 L 29.933594 26.269531 L 31.324219 21.988281 Z M 33.144531 14.6875 L 34.535156 18.96875 L 31.324219 20.011719 L 29.933594 15.730469 Z M 27.113281 8.753906 L 30.753906 11.402344 L 28.773438 14.132812 L 25.132812 11.484375 Z M 27.113281 8.753906 "/>
</g>
</svg>
