<?xml version="1.0" encoding="UTF-8"?>
<svg xmlns="http://www.w3.org/2000/svg" xmlns:xlink="http://www.w3.org/1999/xlink" width="42pt" height="42pt" viewBox="0 0 42 42" version="1.1">
<defs>
<clipPath id="clip1">
  <path d="M 11 11 L 31 11 L 31 31 L 11 31 Z M 11 11 "/>
</clipPath>
<clipPath id="clip2">
  <path d="M 15 11 L 27 11 C 29.210938 11 31 12.789062 31 15 L 31 27 C 31 29.210938 29.210938 31 27 31 L 15 31 C 12.789062 31 11 29.210938 11 27 L 11 15 C 11 12.789062 12.789062 11 15 11 Z M 15 11 "/>
</clipPath>
</defs>
<g id="surface2">
<g clip-path="url(#clip1)" clip-rule="nonzero">
<g clip-path="url(#clip2)" clip-rule="evenodd">
<path style=" stroke:none;fill-rule:evenodd;fill:rgb(100%,100%,99.607843%);fill-opacity:1;" d="M 23 11.664062 L 23 16.402344 C 23 17.839844 24.160156 19 25.597656 19 L 30.339844 19 C 30.925781 19 31.222656 18.296875 30.804688 17.878906 L 24.121094 11.199219 C 23.703125 10.78125 23 11.070312 23 11.664062 Z M 25.574219 21.027344 C 23.035156 21.027344 20.96875 18.964844 20.96875 16.421875 L 20.96875 11.058594 L 12.992188 11.058594 C 11.898438 11.058594 11 11.957031 11 13.054688 L 11 29.003906 C 11 30.101562 11.898438 31 12.992188 31 L 28.945312 31 C 30.042969 31 30.941406 30.101562 30.941406 29.003906 L 30.941406 21.027344 Z M 23 23.222656 C 23 24.324219 22.105469 25.222656 21 25.222656 C 19.894531 25.222656 19 24.324219 19 23.222656 L 17.667969 23.222656 C 17.667969 25.0625 19.160156 26.554688 21 26.554688 C 22.839844 26.554688 24.332031 25.0625 24.332031 23.222656 Z M 15.445312 24.332031 C 15.445312 24.945312 14.949219 25.441406 14.335938 25.441406 C 13.722656 25.441406 13.222656 24.945312 13.222656 24.332031 C 13.222656 23.71875 13.722656 23.222656 14.335938 23.222656 C 14.949219 23.222656 15.445312 23.71875 15.445312 24.332031 Z M 27.664062 25.441406 C 28.28125 25.441406 28.777344 24.945312 28.777344 24.332031 C 28.777344 23.71875 28.28125 23.222656 27.664062 23.222656 C 27.050781 23.222656 26.554688 23.71875 26.554688 24.332031 C 26.554688 24.945312 27.050781 25.441406 27.664062 25.441406 Z M 27.664062 25.441406 "/>
</g>
</g>
</g>
</svg>
